<?xml version="1.0" encoding="UTF-8" standalone="no"?>
<!-- Created with Inkscape (http://www.inkscape.org/) -->

<svg
   width="210mm"
   height="97mm"
   viewBox="0 0 210 97"
   version="1.1"
   id="svg1"
   xml:space="preserve"
   inkscape:version="1.4 (e7c3feb100, 2024-10-09)"
   sodipodi:docname="DTG_Shrine_OS_LOGO_4.svg"
   inkscape:export-filename="DTG_Shrine_OS_LOGO_4.svg"
   inkscape:export-xdpi="302.38095"
   inkscape:export-ydpi="302.38095"
   xmlns:inkscape="http://www.inkscape.org/namespaces/inkscape"
   xmlns:sodipodi="http://sodipodi.sourceforge.net/DTD/sodipodi-0.dtd"
   xmlns:xlink="http://www.w3.org/1999/xlink"
   xmlns="http://www.w3.org/2000/svg"
   xmlns:svg="http://www.w3.org/2000/svg"><sodipodi:namedview
     id="namedview1"
     pagecolor="#ffffff"
     bordercolor="#000000"
     borderopacity="0.25"
     inkscape:showpageshadow="2"
     inkscape:pageopacity="0.0"
     inkscape:pagecheckerboard="0"
     inkscape:deskcolor="#d1d1d1"
     inkscape:document-units="mm"
     showgrid="true"
     inkscape:zoom="1.4142136"
     inkscape:cx="333.04729"
     inkscape:cy="173.24116"
     inkscape:window-width="1366"
     inkscape:window-height="761"
     inkscape:window-x="0"
     inkscape:window-y="0"
     inkscape:window-maximized="1"
     inkscape:current-layer="layer3"
     showguides="true"><inkscape:grid
       id="grid1"
       units="mm"
       originx="0"
       originy="0"
       spacingx="0.99999998"
       spacingy="1"
       empcolor="#0099e5"
       empopacity="0.30196078"
       color="#0099e5"
       opacity="0.14901961"
       empspacing="5"
       enabled="false"
       visible="true" /></sodipodi:namedview><defs
     id="defs1"><linearGradient
       id="linearGradient45"
       inkscape:collect="always"><stop
         style="stop-color:#d82626;stop-opacity:1;"
         offset="0.26535624"
         id="stop43" /><stop
         style="stop-color:#ffffff;stop-opacity:1;"
         offset="0.3759214"
         id="stop46" /><stop
         style="stop-color:#d92626;stop-opacity:1;"
         offset="0.4533169"
         id="stop44" /><stop
         style="stop-color:#511515;stop-opacity:1;"
         offset="0.73710072"
         id="stop45" /></linearGradient><linearGradient
       id="linearGradient39"
       inkscape:collect="always"><stop
         style="stop-color:#ff6666;stop-opacity:1;"
         offset="0"
         id="stop42" /><stop
         style="stop-color:#ff0000;stop-opacity:1;"
         offset="0.60000002"
         id="stop39" /><stop
         style="stop-color:#4c0000;stop-opacity:1;"
         offset="1"
         id="stop40" /></linearGradient><linearGradient
       id="linearGradient37"
       inkscape:collect="always"><stop
         style="stop-color:#ff6666;stop-opacity:1;"
         offset="0"
         id="stop41" /><stop
         style="stop-color:#ff0000;stop-opacity:1;"
         offset="0.60000002"
         id="stop37" /><stop
         style="stop-color:#4c0000;stop-opacity:1;"
         offset="1"
         id="stop38" /></linearGradient><linearGradient
       id="linearGradient2"
       inkscape:collect="always"><stop
         style="stop-color:#eaaeae;stop-opacity:1;"
         offset="0.35626534"
         id="stop7" /><stop
         style="stop-color:#d92626;stop-opacity:1;"
         offset="0.5"
         id="stop5" /><stop
         style="stop-color:#511515;stop-opacity:1;"
         offset="0.70761669"
         id="stop8" /></linearGradient><linearGradient
       id="linearGradient1"
       inkscape:collect="always"><stop
         style="stop-color:#000000;stop-opacity:1;"
         offset="0"
         id="stop2" /><stop
         style="stop-color:#000000;stop-opacity:1;"
         offset="1"
         id="stop3" /></linearGradient><rect
       x="114.5513"
       y="227.68838"
       width="561.44278"
       height="41.012193"
       id="rect22" /><rect
       x="228"
       y="76"
       width="485.14214"
       height="67.757359"
       id="rect21" /><rect
       x="228"
       y="76"
       width="471"
       height="72"
       id="rect21-2" /><linearGradient
       inkscape:collect="always"
       xlink:href="#linearGradient1"
       id="linearGradient3"
       x1="9.9998076"
       y1="44.999529"
       x2="199.99893"
       y2="44.999529"
       gradientUnits="userSpaceOnUse" /><linearGradient
       inkscape:collect="always"
       xlink:href="#linearGradient2"
       id="linearGradient5"
       x1="72.50766"
       y1="-44.270878"
       x2="137.49117"
       y2="134.26984"
       gradientUnits="userSpaceOnUse"
       spreadMethod="reflect" /><linearGradient
       inkscape:collect="always"
       xlink:href="#linearGradient37"
       id="linearGradient38"
       x1="20.210182"
       y1="37.488857"
       x2="35.170692"
       y2="42.93404"
       gradientUnits="userSpaceOnUse" /><linearGradient
       inkscape:collect="always"
       xlink:href="#linearGradient39"
       id="linearGradient40"
       x1="46.657055"
       y1="57.766853"
       x2="38.706429"
       y2="43.995972"
       gradientUnits="userSpaceOnUse" /><linearGradient
       inkscape:collect="always"
       xlink:href="#linearGradient45"
       id="linearGradient43"
       gradientUnits="userSpaceOnUse"
       x1="72.50766"
       y1="-44.270878"
       x2="137.49117"
       y2="134.26984"
       spreadMethod="reflect" /></defs><g
     inkscape:groupmode="layer"
     id="layer2"
     inkscape:label="marco 1"
     style="fill:url(#linearGradient5);fill-opacity:1"><rect
       style="display:inline;fill:url(#linearGradient43);fill-opacity:1;stroke:url(#linearGradient3);stroke-width:0.444;stroke-linecap:square;stroke-miterlimit:3;stroke-dasharray:none"
       id="rect1"
       width="189.55508"
       height="49.555279"
       x="10.221827"
       y="20.221889" /></g><g
     inkscape:groupmode="layer"
     id="layer4"
     inkscape:label="linea dentro del marco"><rect
       style="fill:none;stroke:#000000;stroke-width:0.552361;stroke-linecap:square;stroke-miterlimit:3;stroke-dasharray:none"
       id="rect20"
       width="0.24345668"
       height="29.450397"
       x="57.334408"
       y="30.858294" /></g><g
     inkscape:label="logo 1"
     inkscape:groupmode="layer"
     id="layer1"><path
       fill="#e60012"
       d="m 20.061059,35.087528 4.930855,1.81796 3.013665,3.120998 4.056746,-0.02674 3.026897,5.477639 -10.047832,-0.02988 -4.98054,-7.372023 z"
       id="path1"
       style="display:inline;fill:url(#linearGradient38);fill-opacity:1;stroke:#000000;stroke-width:0.361;stroke-dasharray:none;stroke-opacity:1"
       sodipodi:nodetypes="cccccccccccc" /><path
       fill="#e60012"
       d="m 50.293584,56.02467 -4.926228,-1.830462 -3.005739,-3.128632 -4.056801,0.01645 -3.012993,-5.485299 10.047724,0.05537 4.961825,7.384633 z"
       id="path2"
       style="display:inline;fill:url(#linearGradient40);fill-opacity:1;stroke:#000000;stroke-width:0.361;stroke-dasharray:none;stroke-opacity:1"
       sodipodi:nodetypes="cccccccccccc" /></g><g
     inkscape:groupmode="layer"
     id="layer3"
     inkscape:label="texto"><path
       d="M 260.05337,98.380981 H 228 V 71.71428 h 32.05337 v 5.280007 h 5.28001 v 16.106687 h -5.28001 z m -0.10666,-5.386674 V 77.100954 h -26.56004 v 15.893353 z m 32.05338,5.386674 h -5.33334 V 77.04762 h -16.00002 v -5.33334 h 37.33338 v 5.33334 h -16.00002 z m 58.66675,-16.053354 v 16.053354 h -32.05338 v -5.280007 h -5.28 V 76.994287 h 5.28 V 71.71428 h 32.05338 v 5.386674 h -31.94671 v 15.893353 h 26.56003 V 87.767634 H 323.9468 v -5.440007 z m 53.38675,16.053354 h -32.05338 v -5.386674 h 31.94671 v -5.226673 h -26.6667 v -5.33334 h -5.28001 v -5.440007 h 5.28001 V 71.71428 h 32.05337 v 5.386674 h -31.9467 v 5.226673 h 26.6667 v 5.33334 h 5.28 v 5.440007 h -5.28 z M 446.66699,82.38096 V 71.71428 h 5.33334 v 26.666701 h -5.33334 v -10.66668 h -26.6667 v 10.66668 h -5.33334 V 71.71428 h 5.33334 v 10.66668 z m 16.05336,16.000021 h -5.38667 V 71.71428 h 32.05337 v 5.280007 h 5.28001 v 5.440007 h -5.28001 v 5.226673 h 5.28001 v 10.720014 h -5.38667 V 87.767634 h -26.56004 z m 26.56004,-16.053354 v -5.226673 h -26.56004 v 5.226673 z m 21.38669,10.720014 h 5.33334 v 5.33334 H 500.0004 v -5.33334 h 5.33334 V 77.04762 h -5.33334 v -5.33334 h 16.00002 v 5.33334 h -5.33334 z m 42.61337,-0.05333 V 71.71428 h 5.38667 v 26.666701 h -10.72001 v -5.280007 h -5.33334 v -5.33334 h -5.33334 v -5.33334 h -5.33334 v -5.33334 h -5.22668 v 21.280027 h -5.38667 V 71.71428 h 10.72001 v 5.280007 h 5.33334 v 5.33334 h 5.33334 v 5.33334 h 5.33334 v 5.33334 z m 48.05342,0 v 5.386674 h -32.05338 v -5.280007 h -5.28 V 76.994287 h 5.28 V 71.71428 h 32.05338 v 5.386674 h -31.94671 v 5.226673 h 31.94671 v 5.440007 h -31.94671 v 5.226673 z m 53.38674,5.386674 h -26.77337 v -5.280007 h -5.28 V 76.994287 h 5.28 V 71.71428 h 26.77337 v 5.280007 h 5.28001 v 16.106687 h -5.28001 z m -0.10667,-5.386674 V 77.100954 h -26.56003 v 15.893353 z m 42.77339,5.386674 h -32.05338 v -5.386674 h 31.94671 v -5.226673 h -26.6667 v -5.33334 h -5.28001 v -5.440007 h 5.28001 V 71.71428 h 32.05337 v 5.386674 h -31.9467 v 5.226673 h 26.6667 v 5.33334 h 5.28 v 5.440007 h -5.28 z"
       id="text20"
       style="font-size:26.6667px;font-family:Birdy;-inkscape-font-specification:'Birdy, Normal';white-space:pre;fill:#ffffff;stroke:#000000;stroke-width:0.998999;stroke-linecap:square;stroke-miterlimit:3"
       transform="matrix(0.26281794,0,0,0.23072003,5.2093922,22.137103)"
       aria-label="DTG SHRINE OS" /><path
       d="m 71.871598,49.844883 h -0.573411 l -0.45035,-1.167769 h -1.602409 l -0.424167,1.167769 h -0.536755 l 1.474112,-3.83845 h 0.547228 z m -1.178241,-1.570989 q -0.471297,-1.246318 -0.531518,-1.413891 -0.06022,-0.17019 -0.133535,-0.452968 h -0.01309 q -0.07331,0.387511 -0.196374,0.717418 l -0.429404,1.149441 z m 3.801794,1.570989 H 74.021236 V 48.15607 q 0,-0.426786 -0.154481,-0.586503 -0.151862,-0.159717 -0.424167,-0.159717 -0.209465,0 -0.397984,0.102114 -0.185901,0.102114 -0.26445,0.288015 -0.07855,0.1859 -0.07855,0.526281 v 1.518623 H 72.230308 V 47.06685 h 0.424167 v 0.392748 h 0.01047 q 0.149244,-0.227794 0.366564,-0.340381 0.219939,-0.115206 0.507953,-0.115206 0.219939,0 0.434641,0.07855 0.214702,0.07855 0.335144,0.235649 0.123061,0.157099 0.154481,0.335144 0.03142,0.178045 0.03142,0.48177 z m 2.272697,-3.83845 h 1.324868 q 0.348236,0 0.599594,0.03666 0.251358,0.03404 0.479152,0.172809 0.230411,0.136152 0.400602,0.377037 0.172809,0.240885 0.269686,0.555083 0.0995,0.31158 0.0995,0.756693 0,0.848334 -0.40322,1.395562 -0.403221,0.54461 -1.387707,0.54461 h -1.382471 z m 0.507953,3.382863 h 0.822151 q 0.251359,0 0.447732,-0.03142 0.198992,-0.03142 0.400602,-0.17019 0.204229,-0.138771 0.337763,-0.455587 0.133534,-0.316816 0.133534,-0.837861 0,-0.288015 -0.05237,-0.536755 -0.04975,-0.251358 -0.188519,-0.455587 -0.136152,-0.206846 -0.314198,-0.301106 -0.178045,-0.09688 -0.348236,-0.117824 -0.167572,-0.02095 -0.432022,-0.02095 h -0.806441 z m 4.424954,-2.385285 q 0.562938,0 0.93212,0.366564 0.371801,0.366564 0.371801,1.042089 0,0.819533 -0.400602,1.159914 -0.400603,0.337763 -0.903319,0.337763 -0.526282,0 -0.913792,-0.348236 -0.387511,-0.348236 -0.387511,-1.104929 0,-0.733129 0.374419,-1.091838 0.374419,-0.361327 0.926884,-0.361327 z m 0,2.518819 q 0.40322,0 0.612686,-0.298488 0.209465,-0.298488 0.209465,-0.785494 0,-0.521045 -0.238267,-0.785495 -0.235648,-0.26445 -0.583884,-0.26445 -0.358709,0 -0.589121,0.269687 -0.230412,0.267068 -0.230412,0.798586 0,0.5289 0.23303,0.798586 0.235648,0.267068 0.586503,0.267068 z m 4.102899,0.322053 h -0.421548 v -0.408457 h -0.01309 q -0.319434,0.473915 -0.871899,0.473915 -0.290633,0 -0.539373,-0.133534 -0.246122,-0.136153 -0.329908,-0.371801 -0.08117,-0.238267 -0.08117,-0.615304 V 47.06685 h 0.471296 v 1.53957 q 0,0.369182 0.03404,0.528899 0.03666,0.159718 0.185901,0.26445 0.149244,0.102115 0.356091,0.102115 0.267068,0 0.502716,-0.183282 0.235649,-0.185901 0.235649,-0.767167 V 47.06685 h 0.471296 z m 1.201807,0.149244 q 0,0.274923 -0.03666,0.471297 -0.03666,0.198992 -0.191137,0.348236 -0.151862,0.151862 -0.473915,0.151862 -0.1859,0 -0.369182,-0.04713 l 0.09164,-0.397984 q 0.130915,0.03666 0.219938,0.03666 0.151863,0 0.219939,-0.102115 0.06808,-0.102114 0.06808,-0.471296 V 47.06685 h 0.471297 z m 0,-3.453558 h -0.471297 v -0.534136 h 0.471297 z m 1.191333,3.304314 H 87.725498 V 47.06685 h 0.471296 z m 0,-3.304314 h -0.471296 v -0.534136 h 0.471296 z m 2.990117,3.304314 H 90.712996 V 48.15607 q 0,-0.426786 -0.154481,-0.586503 -0.151862,-0.159717 -0.424167,-0.159717 -0.209465,0 -0.397984,0.102114 -0.1859,0.102114 -0.26445,0.288015 -0.07855,0.1859 -0.07855,0.526281 v 1.518623 H 88.922068 V 47.06685 h 0.424167 v 0.392748 h 0.01047 q 0.149244,-0.227794 0.366565,-0.340381 0.219938,-0.115206 0.507953,-0.115206 0.219938,0 0.43464,0.07855 0.214702,0.07855 0.335145,0.235649 0.12306,0.157099 0.15448,0.335144 0.03142,0.178045 0.03142,0.48177 z m 5.000982,-3.382864 H 94.91801 v 3.382864 h -0.510572 v -3.382864 h -1.259409 v -0.455586 h 3.039864 z m 2.89062,2.112981 h -2.081561 q 0.0288,0.460824 0.261832,0.704327 0.235648,0.243503 0.586503,0.243503 0.269686,0 0.452968,-0.141389 0.183282,-0.144007 0.28016,-0.432022 l 0.484388,0.06022 q -0.117824,0.434641 -0.432022,0.667671 -0.314198,0.23303 -0.785494,0.23303 -0.625778,0 -0.97925,-0.382274 -0.350855,-0.384893 -0.350855,-1.049945 0,-0.657197 0.340381,-1.065654 0.343,-0.408457 0.96354,-0.408457 0.303725,0 0.583885,0.133534 0.282778,0.133534 0.479151,0.455587 0.196374,0.319434 0.196374,0.981868 z m -0.484388,-0.387511 q -0.0288,-0.424167 -0.26445,-0.610067 -0.23303,-0.188519 -0.510572,-0.188519 -0.332526,0 -0.547228,0.222557 -0.214701,0.222557 -0.24874,0.576029 z m 3.327875,0.696472 q -0.0916,0.531518 -0.41893,0.780258 -0.32729,0.246122 -0.74098,0.246122 -0.60483,0 -0.934738,-0.395366 -0.329908,-0.397984 -0.329908,-1.052563 0,-0.541991 0.188519,-0.866662 0.191137,-0.327289 0.476537,-0.458205 0.28539,-0.133534 0.59959,-0.133534 0.4294,0 0.73313,0.222557 0.30634,0.222556 0.37704,0.654578 l -0.45559,0.0707 q -0.0707,-0.28016 -0.23041,-0.421549 -0.1571,-0.141389 -0.40322,-0.141389 -0.39537,0 -0.5996,0.28016 -0.204226,0.28016 -0.204226,0.782876 0,0.51319 0.198996,0.79335 0.20161,0.277541 0.57864,0.277541 0.30373,0 0.47654,-0.172809 0.17542,-0.175427 0.21994,-0.523663 z m 2.67592,0.960922 h -0.47391 v -1.754271 q 0,-0.340381 -0.14663,-0.510572 -0.14662,-0.17019 -0.43726,-0.17019 -0.28801,0 -0.51581,0.20161 -0.22517,0.198992 -0.22517,0.7148 v 1.518623 h -0.4713 v -3.83845 h 0.4713 v 1.377233 q 0.33514,-0.379655 0.83786,-0.379655 0.26969,0 0.51581,0.109969 0.24612,0.109969 0.34562,0.337763 0.0995,0.227793 0.0995,0.633632 z m 2.98226,0 h -0.47391 V 48.15607 q 0,-0.426786 -0.15448,-0.586503 -0.15186,-0.159717 -0.42417,-0.159717 -0.20946,0 -0.39798,0.102114 -0.1859,0.102114 -0.26445,0.288015 -0.0785,0.1859 -0.0785,0.526281 v 1.518623 h -0.4713 V 47.06685 h 0.42417 v 0.392748 h 0.0105 q 0.14924,-0.227794 0.36656,-0.340381 0.21994,-0.115206 0.50796,-0.115206 0.21994,0 0.43464,0.07855 0.2147,0.07855 0.33514,0.235649 0.12306,0.157099 0.15448,0.335144 0.0314,0.178045 0.0314,0.48177 z m 1.8433,-2.840872 q 0.56294,0 0.93212,0.366564 0.3718,0.366564 0.3718,1.042089 0,0.819533 -0.4006,1.159914 -0.40061,0.337763 -0.90332,0.337763 -0.52628,0 -0.91379,-0.348236 -0.38751,-0.348236 -0.38751,-1.104929 0,-0.733129 0.37441,-1.091838 0.37442,-0.361327 0.92689,-0.361327 z m 0,2.518819 q 0.40322,0 0.61268,-0.298488 0.20947,-0.298488 0.20947,-0.785494 0,-0.521045 -0.23827,-0.785495 -0.23565,-0.26445 -0.58388,-0.26445 -0.35871,0 -0.58912,0.269687 -0.23041,0.267068 -0.23041,0.798586 0,0.5289 0.23303,0.798586 0.23564,0.267068 0.5865,0.267068 z m 2.32244,0.322053 h -0.47129 v -3.83845 h 0.47129 z m 1.85115,-2.840872 q 0.56294,0 0.93212,0.366564 0.3718,0.366564 0.3718,1.042089 0,0.819533 -0.4006,1.159914 -0.4006,0.337763 -0.90332,0.337763 -0.52628,0 -0.91379,-0.348236 -0.38751,-0.348236 -0.38751,-1.104929 0,-0.733129 0.37442,-1.091838 0.37442,-0.361327 0.92688,-0.361327 z m 0,2.518819 q 0.40322,0 0.61269,-0.298488 0.20946,-0.298488 0.20946,-0.785494 0,-0.521045 -0.23826,-0.785495 -0.23565,-0.26445 -0.58389,-0.26445 -0.35871,0 -0.58912,0.269687 -0.23041,0.267068 -0.23041,0.798586 0,0.5289 0.23303,0.798586 0.23565,0.267068 0.5865,0.267068 z m 4.12647,-0.05237 q 0,0.591739 -0.11783,0.882372 -0.11782,0.293251 -0.41893,0.455587 -0.3011,0.162336 -0.72003,0.162336 -0.4713,0 -0.7855,-0.209466 -0.3142,-0.209465 -0.3142,-0.685998 l 0.45821,0.07069 q 0.0262,0.219939 0.18328,0.329908 0.15972,0.109969 0.45297,0.109969 0.36656,0 0.53676,-0.149244 0.17019,-0.149244 0.20684,-0.363946 0.0393,-0.214701 0.0393,-0.591739 -0.30635,0.363946 -0.77241,0.363946 -0.54199,0 -0.8719,-0.400602 -0.32728,-0.400603 -0.32728,-1.01067 0,-0.612686 0.31943,-1.021143 0.31943,-0.408457 0.88499,-0.408457 0.49224,0 0.80121,0.395365 h 0.0105 V 47.06685 h 0.43464 z m -1.20704,-0.01047 q 0.3011,0 0.53413,-0.238267 0.23303,-0.240885 0.23303,-0.803823 0,-0.49748 -0.22256,-0.76193 -0.22255,-0.267068 -0.54984,-0.267068 -0.33515,0 -0.54723,0.272305 -0.20946,0.272305 -0.20946,0.74622 0,0.547228 0.21993,0.801204 0.22256,0.251359 0.542,0.251359 z m 2.38528,0.384892 h -0.4713 V 47.06685 h 0.4713 z m 0,-3.304314 h -0.4713 v -0.534136 h 0.4713 z m 2.99535,2.343392 q -0.0916,0.531518 -0.41893,0.780258 -0.32729,0.246122 -0.74098,0.246122 -0.60483,0 -0.93474,-0.395366 -0.32991,-0.397984 -0.32991,-1.052563 0,-0.541991 0.18852,-0.866662 0.19114,-0.327289 0.47653,-0.458205 0.2854,-0.133534 0.5996,-0.133534 0.4294,0 0.73312,0.222557 0.30635,0.222556 0.37704,0.654578 l -0.45558,0.0707 q -0.0707,-0.28016 -0.23042,-0.421549 -0.1571,-0.141389 -0.40322,-0.141389 -0.39536,0 -0.59959,0.28016 -0.20423,0.28016 -0.20423,0.782876 0,0.51319 0.19899,0.79335 0.20161,0.277541 0.57865,0.277541 0.30372,0 0.47653,-0.172809 0.17543,-0.175427 0.21994,-0.523663 z m 1.95588,-1.039471 q -0.0314,-0.227793 -0.1859,-0.340381 -0.15186,-0.115206 -0.42416,-0.115206 -0.26969,0 -0.43726,0.09164 -0.16496,0.09164 -0.16496,0.267068 0,0.164954 0.13092,0.235649 0.13353,0.07069 0.52366,0.172809 0.43988,0.112587 0.6572,0.198992 0.21994,0.0864 0.34038,0.243503 0.12306,0.15448 0.12306,0.432022 0,0.371801 -0.30372,0.625777 -0.30373,0.253977 -0.81168,0.253977 -0.5289,0 -0.82739,-0.222557 -0.29587,-0.225175 -0.36394,-0.672907 l 0.46867,-0.0707 q 0.0367,0.290633 0.21471,0.434641 0.18066,0.144007 0.50271,0.144007 0.30896,0 0.47392,-0.128297 0.16495,-0.130916 0.16495,-0.316816 0,-0.12568 -0.0759,-0.201611 -0.0759,-0.07593 -0.19114,-0.112587 -0.11258,-0.03928 -0.51057,-0.136153 -0.59174,-0.141389 -0.78288,-0.342999 -0.18851,-0.20161 -0.18851,-0.48177 0,-0.348236 0.27754,-0.573411 0.27754,-0.225175 0.74622,-0.225175 0.49748,0 0.7724,0.196373 0.27754,0.193756 0.33253,0.581266 z m 6.09021,1.463638 q -0.72528,0.602213 -1.5867,0.602213 -0.88237,0 -1.42437,-0.536755 -0.53937,-0.539373 -0.53937,-1.432218 0,-0.54461 0.21994,-1.013288 0.22256,-0.471297 0.65196,-0.727892 0.43202,-0.259213 1.05518,-0.259213 0.64673,0 1.03685,0.285396 0.39275,0.282778 0.5289,0.850953 l -0.45558,0.128297 q -0.10735,-0.413694 -0.3849,-0.620541 -0.27754,-0.209465 -0.72527,-0.209465 -0.69385,0 -1.04732,0.424167 -0.35348,0.424167 -0.35348,1.110166 0,0.51319 0.17019,0.853571 0.17281,0.340381 0.50796,0.515808 0.33776,0.172809 0.73312,0.172809 0.60222,0 1.12064,-0.395366 v -0.712182 h -1.13111 v -0.458205 h 1.62336 z m 2.19938,-2.154873 -0.16234,0.43464 q -0.17542,-0.102114 -0.34299,-0.102114 -0.26445,0 -0.40061,0.238266 -0.13615,0.235649 -0.13615,0.662434 v 1.458402 h -0.4713 V 47.06685 h 0.42941 v 0.418931 h 0.0105 q 0.22518,-0.48177 0.58912,-0.48177 0.24089,0 0.48439,0.149244 z m 1.41913,-0.149244 q 0.56293,0 0.93212,0.366564 0.3718,0.366564 0.3718,1.042089 0,0.819533 -0.4006,1.159914 -0.40061,0.337763 -0.90332,0.337763 -0.52629,0 -0.9138,-0.348236 -0.38751,-0.348236 -0.38751,-1.104929 0,-0.733129 0.37442,-1.091838 0.37442,-0.361327 0.92689,-0.361327 z m 0,2.518819 q 0.40322,0 0.61268,-0.298488 0.20947,-0.298488 0.20947,-0.785494 0,-0.521045 -0.23827,-0.785495 -0.23565,-0.26445 -0.58388,-0.26445 -0.35871,0 -0.58912,0.269687 -0.23042,0.267068 -0.23042,0.798586 0,0.5289 0.23303,0.798586 0.23565,0.267068 0.58651,0.267068 z m 4.1029,0.322053 h -0.42155 v -0.408457 h -0.0131 q -0.31943,0.473915 -0.8719,0.473915 -0.29063,0 -0.53937,-0.133534 -0.24612,-0.136153 -0.32991,-0.371801 -0.0812,-0.238267 -0.0812,-0.615304 V 47.06685 h 0.4713 v 1.53957 q 0,0.369182 0.034,0.528899 0.0367,0.159718 0.1859,0.26445 0.14924,0.102115 0.35609,0.102115 0.26707,0 0.50272,-0.183282 0.23564,-0.185901 0.23564,-0.767167 V 47.06685 h 0.4713 z m 1.17562,-2.419323 q 0.26445,-0.421549 0.79335,-0.421549 0.54723,0 0.86405,0.397984 0.31681,0.395365 0.31681,1.031616 0,0.678144 -0.35085,1.078746 -0.35085,0.397984 -0.86143,0.397984 -0.44773,0 -0.71741,-0.356091 h -0.0131 v 1.358906 h -0.47129 V 47.06685 h 0.4294 v 0.35871 z m 0.73051,2.09727 q 0.32991,0 0.54461,-0.272305 0.21732,-0.274923 0.21732,-0.816914 0,-0.510572 -0.20946,-0.785495 -0.20685,-0.274923 -0.53152,-0.274923 -0.33514,0 -0.55246,0.306343 -0.21471,0.306343 -0.21471,0.79335 0,0.515808 0.20685,0.782876 0.20685,0.267068 0.53937,0.267068 z m 5.02978,-3.581855 q 0.80644,0 1.31963,0.547228 0.51319,0.547228 0.51319,1.442691 0,0.892846 -0.51581,1.437456 -0.5158,0.541991 -1.31701,0.541991 -0.83,0 -1.33534,-0.562938 -0.50533,-0.562938 -0.50533,-1.374616 0,-0.945211 0.51057,-1.487203 0.51319,-0.544609 1.3301,-0.544609 z m -0.005,3.534725 q 0.58388,0 0.94521,-0.408457 0.36394,-0.408457 0.36656,-1.136349 0,-0.748838 -0.3718,-1.152058 -0.36918,-0.403221 -0.9295,-0.403221 -0.57603,0 -0.94783,0.395366 -0.3718,0.395365 -0.3718,1.21228 0,0.66767 0.36394,1.081364 0.36395,0.411075 0.94522,0.411075 z m 2.888,-2.05014 q 0.26445,-0.421549 0.79335,-0.421549 0.54723,0 0.86405,0.397984 0.31681,0.395365 0.31681,1.031616 0,0.678144 -0.35085,1.078746 -0.35086,0.397984 -0.86143,0.397984 -0.44773,0 -0.71742,-0.356091 h -0.0131 v 1.358906 h -0.47129 V 47.06685 h 0.4294 v 0.35871 z m 0.73051,2.09727 q 0.32991,0 0.54461,-0.272305 0.21732,-0.274923 0.21732,-0.816914 0,-0.510572 -0.20946,-0.785495 -0.20685,-0.274923 -0.53152,-0.274923 -0.33514,0 -0.55246,0.306343 -0.21471,0.306343 -0.21471,0.79335 0,0.515808 0.20685,0.782876 0.20685,0.267068 0.53937,0.267068 z m 4.22073,-0.94783 h -2.08156 q 0.0288,0.460824 0.26183,0.704327 0.23565,0.243503 0.5865,0.243503 0.26969,0 0.45297,-0.141389 0.18328,-0.144007 0.28016,-0.432022 l 0.48439,0.06022 q -0.11783,0.434641 -0.43202,0.667671 -0.3142,0.23303 -0.7855,0.23303 -0.62578,0 -0.97925,-0.382274 -0.35085,-0.384893 -0.35085,-1.049945 0,-0.657197 0.34038,-1.065654 0.343,-0.408457 0.96354,-0.408457 0.30372,0 0.58388,0.133534 0.28278,0.133534 0.47915,0.455587 0.19638,0.319434 0.19638,0.981868 z m -0.48439,-0.387511 q -0.0288,-0.424167 -0.26445,-0.610067 -0.23303,-0.188519 -0.51057,-0.188519 -0.33253,0 -0.54723,0.222557 -0.2147,0.222557 -0.24874,0.576029 z m 2.55023,-1.034234 -0.16233,0.43464 q -0.17543,-0.102114 -0.343,-0.102114 -0.26445,0 -0.40061,0.238266 -0.13615,0.235649 -0.13615,0.662434 v 1.458402 h -0.47129 V 47.06685 h 0.4294 v 0.418931 h 0.0105 q 0.22518,-0.48177 0.58912,-0.48177 0.24089,0 0.48439,0.149244 z m 2.69687,2.691628 h -0.49486 q -0.0681,-0.130916 -0.0969,-0.342999 -0.47391,0.408457 -1.02376,0.408457 -0.43987,0 -0.69385,-0.219939 -0.25398,-0.219938 -0.25398,-0.581266 0,-0.345617 0.24351,-0.568174 0.24612,-0.225175 0.85095,-0.298488 l 0.43988,-0.06546 q 0.24612,-0.03928 0.40583,-0.09688 0,-0.212083 -0.0131,-0.298488 -0.0131,-0.08902 -0.0786,-0.183282 -0.0628,-0.09426 -0.20423,-0.151862 -0.14138,-0.0576 -0.37965,-0.0576 -0.30373,0 -0.48177,0.112588 -0.17543,0.112587 -0.24089,0.41893 L 154.7151,47.8602 q 0.0759,-0.426786 0.39013,-0.641487 0.3142,-0.214702 0.86404,-0.214702 0.5001,0 0.73313,0.149244 0.23565,0.146625 0.28802,0.356091 0.055,0.209465 0.055,0.539373 v 0.633632 q 0,0.578648 0.0209,0.77764 0.0236,0.196373 0.13091,0.384892 z M 156.5741,48.62213 v -0.170191 q -0.36918,0.123061 -0.90331,0.196374 -0.53414,0.07069 -0.53414,0.45035 0,0.191137 0.14401,0.316816 0.144,0.123061 0.41369,0.123061 0.34824,0 0.61269,-0.206847 0.26706,-0.209465 0.26706,-0.709563 z m 2.28056,1.217516 q -0.20947,0.04189 -0.35347,0.04189 -0.30897,0 -0.45036,-0.107351 -0.14138,-0.109969 -0.1728,-0.277541 -0.0314,-0.167572 -0.0314,-0.46606 v -1.599791 h -0.343 V 47.06685 h 0.343 v -0.691235 l 0.47129,-0.285396 v 0.976631 h 0.4713 v 0.363946 h -0.4713 v 1.625974 q 0,0.209465 0.0419,0.298488 0.0445,0.0864 0.21993,0.0864 0.10212,0 0.20947,-0.02095 z m 0.87713,0.0052 h -0.4713 V 47.06685 h 0.4713 z m 0,-3.304314 h -0.4713 v -0.534136 h 0.4713 z m 2.97703,0.526281 -1.04995,2.778033 h -0.43988 l -1.05518,-2.778033 h 0.49748 l 0.57341,1.607646 q 0.16234,0.455587 0.19376,0.617922 h 0.0105 q 0.0419,-0.167572 0.14401,-0.45035 l 0.64411,-1.775218 z m 2.83825,1.50815 h -2.08156 q 0.0288,0.460824 0.26183,0.704327 0.23565,0.243503 0.5865,0.243503 0.26969,0 0.45297,-0.141389 0.18328,-0.144007 0.28016,-0.432022 l 0.48439,0.06022 q -0.11783,0.434641 -0.43203,0.667671 -0.31419,0.23303 -0.78549,0.23303 -0.62578,0 -0.97925,-0.382274 -0.35085,-0.384893 -0.35085,-1.049945 0,-0.657197 0.34038,-1.065654 0.343,-0.408457 0.96354,-0.408457 0.30372,0 0.58388,0.133534 0.28278,0.133534 0.47915,0.455587 0.19638,0.319434 0.19638,0.981868 z m -0.48439,-0.387511 q -0.0288,-0.424167 -0.26445,-0.610067 -0.23303,-0.188519 -0.51057,-0.188519 -0.33253,0 -0.54723,0.222557 -0.2147,0.222557 -0.24874,0.576029 z m 4.8753,-1.055181 q -0.0314,-0.366564 -0.26445,-0.549846 -0.23303,-0.1859 -0.66767,-0.1859 -0.39274,0 -0.63887,0.146625 -0.24612,0.146626 -0.24612,0.426786 0,0.24874 0.18852,0.3718 0.19114,0.120443 0.72789,0.240885 0.47654,0.104733 0.77764,0.214702 0.30111,0.10997 0.51581,0.343 0.2147,0.230411 0.2147,0.62054 0,0.494862 -0.39536,0.822151 -0.39275,0.32729 -1.02638,0.32729 -0.80906,0 -1.21228,-0.361328 -0.40061,-0.361327 -0.42417,-0.937357 l 0.48177,-0.04189 q 0.034,0.460824 0.35609,0.672907 0.32205,0.209466 0.77764,0.209466 0.42679,0 0.68862,-0.175427 0.26445,-0.175428 0.26445,-0.476534 0,-0.314198 -0.27493,-0.458205 -0.27492,-0.144007 -0.92426,-0.282778 -0.64673,-0.141389 -0.93212,-0.395366 -0.2854,-0.253976 -0.2854,-0.659815 0,-0.460824 0.36133,-0.76193 0.36133,-0.301106 0.98449,-0.301106 0.63887,0 1.02638,0.301106 0.39012,0.298488 0.41369,0.850952 z m 3.52426,-0.06546 -1.06304,2.825163 q -0.003,0.0052 -0.005,0.01833 -0.15187,0.471297 -0.35609,0.764548 -0.20162,0.29587 -0.57603,0.29587 -0.12568,0 -0.30635,-0.05237 l -0.0471,-0.445113 q 0.13616,0.04189 0.26707,0.04189 0.26183,0 0.36133,-0.144008 0.10211,-0.144007 0.22779,-0.521044 l -1.05518,-2.78327 h 0.50795 l 0.65458,1.81973 q 0.0576,0.167572 0.12306,0.432022 h 0.0105 q 0.0655,-0.303725 0.16757,-0.578648 l 0.61007,-1.673104 z m 1.95064,0.77764 q -0.0314,-0.227793 -0.1859,-0.340381 -0.15186,-0.115206 -0.42417,-0.115206 -0.26968,0 -0.43726,0.09164 -0.16495,0.09164 -0.16495,0.267068 0,0.164954 0.13092,0.235649 0.13353,0.07069 0.52366,0.172809 0.43988,0.112587 0.6572,0.198992 0.21994,0.0864 0.34038,0.243503 0.12306,0.15448 0.12306,0.432022 0,0.371801 -0.30373,0.625777 -0.30372,0.253977 -0.81167,0.253977 -0.5289,0 -0.82739,-0.222557 -0.29587,-0.225175 -0.36395,-0.672907 l 0.46868,-0.0707 q 0.0367,0.290633 0.2147,0.434641 0.18067,0.144007 0.50272,0.144007 0.30896,0 0.47391,-0.128297 0.16496,-0.130916 0.16496,-0.316816 0,-0.12568 -0.0759,-0.201611 -0.0759,-0.07593 -0.19114,-0.112587 -0.11259,-0.03928 -0.51057,-0.136153 -0.59174,-0.141389 -0.78288,-0.342999 -0.18852,-0.20161 -0.18852,-0.48177 0,-0.348236 0.27755,-0.573411 0.27754,-0.225175 0.74622,-0.225175 0.49748,0 0.7724,0.196373 0.27754,0.193756 0.33252,0.581266 z m 2.21509,1.995156 q -0.20946,0.04189 -0.35347,0.04189 -0.30896,0 -0.45035,-0.107351 -0.14139,-0.109969 -0.17281,-0.277541 -0.0314,-0.167572 -0.0314,-0.46606 v -1.599791 h -0.343 V 47.06685 h 0.343 v -0.691235 l 0.4713,-0.285396 v 0.976631 h 0.4713 v 0.363946 h -0.4713 v 1.625974 q 0,0.209465 0.0419,0.298488 0.0445,0.0864 0.21994,0.0864 0.10211,0 0.20947,-0.02095 z M 180.4479,48.575 h -2.08156 q 0.0288,0.460824 0.26183,0.704327 0.23565,0.243503 0.5865,0.243503 0.26969,0 0.45297,-0.141389 0.18328,-0.144007 0.28016,-0.432022 l 0.48439,0.06022 q -0.11782,0.434641 -0.43202,0.667671 -0.3142,0.23303 -0.7855,0.23303 -0.62577,0 -0.97925,-0.382274 -0.35085,-0.384893 -0.35085,-1.049945 0,-0.657197 0.34038,-1.065654 0.343,-0.408457 0.96354,-0.408457 0.30372,0 0.58388,0.133534 0.28278,0.133534 0.47916,0.455587 0.19637,0.319434 0.19637,0.981868 z m -0.48439,-0.387511 q -0.0288,-0.424167 -0.26445,-0.610067 -0.23303,-0.188519 -0.51057,-0.188519 -0.33253,0 -0.54723,0.222557 -0.2147,0.222557 -0.24874,0.576029 z m 4.8177,1.657394 h -0.47129 v -1.754271 q 0,-0.193756 -0.0262,-0.329908 -0.0262,-0.138771 -0.13615,-0.243503 -0.10735,-0.107351 -0.33776,-0.107351 -0.27754,0 -0.47915,0.193755 -0.20161,0.193755 -0.20161,0.628396 v 1.612882 h -0.4713 v -1.806638 q 0,-0.361327 -0.1283,-0.494861 -0.12568,-0.133534 -0.35871,-0.133534 -0.30372,0 -0.5001,0.209465 -0.19375,0.209465 -0.19375,0.782876 v 1.442692 h -0.4713 V 47.06685 h 0.42417 v 0.387511 h 0.0105 q 0.28278,-0.45035 0.83001,-0.45035 0.30634,0 0.50271,0.123061 0.199,0.120442 0.28802,0.363945 0.30896,-0.487006 0.85619,-0.487006 0.43202,0 0.64672,0.23303 0.21732,0.23303 0.21732,0.69909 z"
       id="text22"
       style="font-size:5.36231px;font-family:'Arial Unicode MS';-inkscape-font-specification:'Arial Unicode MS, Normal';text-align:center;text-anchor:middle;fill:#ffffff;stroke:#000000;stroke-width:0.1;stroke-linecap:square;stroke-miterlimit:3"
       transform="scale(0.94751363,1.0553938)"
       aria-label="An Doujin Technologics Group Operative System" /></g></svg>
