<?xml version="1.0" encoding="UTF-8" standalone="no"?>
<svg
   version="1.1"
   id="Layer_1"
   x="0px"
   y="0px"
   width="100"
   height="100"
   viewBox="0 0 100 100"
   enable-background="new 0 0 612 792"
   xml:space="preserve"
   xmlns="http://www.w3.org/2000/svg"
   xmlns:svg="http://www.w3.org/2000/svg"
   xmlns:rdf="http://www.w3.org/1999/02/22-rdf-syntax-ns#"
   xmlns:cc="http://creativecommons.org/ns#"
   xmlns:dc="http://purl.org/dc/elements/1.1/"><title
     id="title3032">Sony Classical logo</title><metadata
     id="metadata51"><rdf:rdf><cc:work
         rdf:about=""><dc:format>image/svg+xml</dc:format><dc:type
           rdf:resource="http://purl.org/dc/dcmitype/StillImage" /><dc:title>Sony Classical logo</dc:title></cc:work></rdf:rdf><rdf:RDF><cc:Work
         rdf:about=""><dc:title>Sony Classical logo</dc:title></cc:Work></rdf:RDF></metadata><defs
     id="defs49" /><rect
     style="fill:#ffffff;stroke-width:1.89652"
     id="rect1"
     width="100"
     height="100"
     x="0"
     y="0" /><g
     id="g3"
     transform="matrix(0.55759253,0,0,0.55757351,-120.4907,-170.79806)"><path
       d="m 392.58,484.252 h -174.404 -0.669 v -0.669 -174.411 -0.668 h 0.669 174.404 0.669 v 0.668 174.411 0.669 z M 218.844,482.914 H 391.911 V 309.841 H 218.844 Z"
       id="path7" /></g><path
     d="M 33.244111,24.372214 H 15.027543 V 10.352523 h 18.216568 v 2.775899 h 3.000734 v 8.467893 h -3.000734 z m -0.06062,-2.831977 V 13.184501 H 18.088896 v 8.355736 z M 51.400064,13.156461 V 24.372214 H 48.369021 V 13.156461 h -9.093129 v -2.803938 h 21.217302 v 2.803938 z m 33.34148,2.775899 v 8.439854 H 66.524975 v -2.775899 h -3.000733 v -8.467893 h 3.000733 v -2.775899 h 18.216569 v 2.831978 H 66.585596 v 8.355736 H 81.68019 V 18.792376 H 69.556018 V 15.93236 Z"
     id="text1"
     style="font-size:14.5764px;font-family:Birdy;-inkscape-font-specification:'Birdy, Normal';stroke:#000000;stroke-width:0;stroke-linecap:square;stroke-miterlimit:3"
     aria-label="dtg" /><path
     id="path1"
     style="display:inline;fill:#ff0000;fill-opacity:1;fill-rule:evenodd;stroke:#000000;stroke-width:0.297851;stroke-dasharray:none;stroke-opacity:1"
     d="m 10.050781,30.224609 -0.002,6.972657 13.152344,17.199218 26.53125,0.07031 -7.994141,-12.78125 -10.710937,0.0625 -7.957032,-7.28125 z m 40.214844,24.521485 7.957031,12.796875 10.710938,-0.03711 7.9375,7.298829 13.007812,4.271484 0.01953,-6.970703 L 76.796875,54.875 Z" /><path
     style="line-height:0;font-family:'Arial Unicode MS';-inkscape-font-specification:'Arial Unicode MS';letter-spacing:1.03584px;white-space:pre;stroke-width:0.994366"
     d="m 18.478234,85.929871 q -0.07031,-0.811094 -0.591797,-1.216642 -0.521484,-0.411341 -1.49414,-0.411341 -0.878907,0 -1.429688,0.324438 -0.550781,0.324438 -0.550781,0.944346 0,0.550386 0.421875,0.822682 0.427734,0.266503 1.628906,0.533006 1.066406,0.231741 1.740235,0.47507 0.673828,0.243328 1.154296,0.758953 0.480469,0.509831 0.480469,1.373068 0,1.094978 -0.884765,1.819169 -0.878907,0.724192 -2.296875,0.724192 -1.810547,0 -2.712891,-0.799507 -0.896485,-0.799508 -0.949219,-2.074086 l 1.078125,-0.0927 q 0.07617,1.019663 0.796875,1.48894 0.720703,0.463482 1.740235,0.463482 0.955078,0 1.541015,-0.388166 0.591797,-0.388168 0.591797,-1.054425 0,-0.695224 -0.615234,-1.013868 -0.615235,-0.318645 -2.06836,-0.625702 -1.447266,-0.312851 -2.085937,-0.874823 -0.638672,-0.561974 -0.638672,-1.459972 0,-1.019662 0.808593,-1.685919 0.808594,-0.666256 2.203126,-0.666256 1.429687,0 2.296875,0.666256 0.873047,0.660464 0.925781,1.8829 z m 10.721387,6.002103 h -1.142578 v -3.997539 h -4.464844 v 3.997539 H 22.45548 v -8.493323 h 1.136719 v 3.487709 h 4.464844 v -3.487709 h 1.142578 z m 10.528028,0 h -1.429688 q -1.283203,-2.004563 -1.59375,-2.462252 -0.310547,-0.457689 -0.65625,-0.782127 -0.339844,-0.330232 -0.644531,-0.417135 -0.298828,-0.0869 -0.796875,-0.0869 h -1.3125 v 3.748417 h -1.136719 v -8.493323 h 3.802734 q 0.779297,0 1.306641,0.09849 0.527344,0.09849 0.925781,0.417134 0.398438,0.312851 0.609375,0.793714 0.216797,0.480864 0.216797,1.013869 0,0.961727 -0.615234,1.546874 -0.615235,0.585148 -1.792969,0.741573 v 0.02318 q 0.861328,0.376581 1.617188,1.546874 z m -6.433594,-4.756492 h 2.4375 q 0.738281,0 1.166015,-0.121665 0.433594,-0.127457 0.691407,-0.486656 0.257812,-0.3592 0.257812,-0.805302 0,-0.579354 -0.427734,-0.984901 -0.427735,-0.405547 -1.41211,-0.405547 h -2.71289 z m 9.848341,4.756492 h -1.142578 v -8.493323 h 1.142578 z m 9.830761,0 H 51.807141 L 47.31886,85.263615 h -0.02344 v 6.668359 h -1.078125 v -8.493323 h 1.160157 l 4.488281,6.66836 h 0.02344 v -6.66836 h 1.083985 z m 9.362011,0 h -6.416016 v -8.493323 h 6.216797 v 1.008075 h -5.080078 v 2.595504 h 4.751953 v 1.008076 H 57.055871 V 90.9239 h 5.279297 z m 10.725979,-8.638161 q 1.804687,0 2.953125,1.210849 1.148437,1.210849 1.148437,3.192238 0,1.975596 -1.154297,3.180651 -1.154297,1.199261 -2.947265,1.199261 -1.857422,0 -2.988282,-1.245609 -1.130859,-1.245611 -1.130859,-3.041606 0,-2.091467 1.142578,-3.290729 1.148438,-1.205055 2.976563,-1.205055 z m -0.01172,7.821273 q 1.30664,0 2.115234,-0.903791 0.814453,-0.903792 0.820313,-2.514395 0,-1.656951 -0.832032,-2.549156 -0.826171,-0.892204 -2.080078,-0.892204 -1.289062,0 -2.121093,0.874824 -0.832032,0.874823 -0.832032,2.682406 0,1.477352 0.814453,2.392731 0.814454,0.909585 2.115235,0.909585 z m 11.723339,-5.185215 q -0.07031,-0.811094 -0.591797,-1.216642 -0.521484,-0.411341 -1.494141,-0.411341 -0.878906,0 -1.429687,0.324438 -0.550781,0.324438 -0.550781,0.944346 0,0.550386 0.421875,0.822682 0.427734,0.266503 1.628906,0.533006 1.066406,0.231741 1.740234,0.47507 0.673828,0.243328 1.154297,0.758953 0.480469,0.509831 0.480469,1.373068 0,1.094978 -0.884766,1.819169 -0.878906,0.724192 -2.296875,0.724192 -1.810547,0 -2.71289,-0.799507 -0.896485,-0.799508 -0.949219,-2.074086 l 1.078125,-0.0927 q 0.07617,1.019663 0.796875,1.48894 0.720703,0.463482 1.740234,0.463482 0.955078,0 1.541016,-0.388166 0.591797,-0.388168 0.591797,-1.054425 0,-0.695224 -0.615235,-1.013868 -0.615234,-0.318645 -2.068359,-0.625702 -1.447266,-0.312851 -2.085937,-0.874823 -0.638672,-0.561974 -0.638672,-1.459972 0,-1.019662 0.808593,-1.685919 0.808594,-0.666256 2.203125,-0.666256 1.429688,0 2.296875,0.666256 0.873047,0.660464 0.925782,1.8829 z"
     id="text2"
     aria-label="SHRINE OS" /></svg>
