<?xml version="1.0" encoding="UTF-8" standalone="no"?>
<svg
   version="1.1"
   id="Layer_1"
   x="0px"
   y="0px"
   width="100"
   height="100"
   viewBox="0 0 100 100"
   enable-background="new 0 0 612 792"
   xml:space="preserve"
   sodipodi:docname="DTG_Shrine_OS_LOGO_1.svg"
   inkscape:version="1.4 (e7c3feb100, 2024-10-09)"
   xmlns:inkscape="http://www.inkscape.org/namespaces/inkscape"
   xmlns:sodipodi="http://sodipodi.sourceforge.net/DTD/sodipodi-0.dtd"
   xmlns:xlink="http://www.w3.org/1999/xlink"
   xmlns="http://www.w3.org/2000/svg"
   xmlns:svg="http://www.w3.org/2000/svg"
   xmlns:rdf="http://www.w3.org/1999/02/22-rdf-syntax-ns#"
   xmlns:cc="http://creativecommons.org/ns#"
   xmlns:dc="http://purl.org/dc/elements/1.1/"><sodipodi:namedview
     id="namedview1"
     pagecolor="#ffffff"
     bordercolor="#000000"
     borderopacity="0.25"
     inkscape:showpageshadow="2"
     inkscape:pageopacity="0.0"
     inkscape:pagecheckerboard="0"
     inkscape:deskcolor="#d1d1d1"
     showgrid="true"
     inkscape:zoom="2.81"
     inkscape:cx="39.145907"
     inkscape:cy="49.466192"
     inkscape:window-width="1366"
     inkscape:window-height="744"
     inkscape:window-x="0"
     inkscape:window-y="0"
     inkscape:window-maximized="1"
     inkscape:current-layer="Layer_1"><inkscape:grid
       id="grid2"
       units="px"
       originx="0"
       originy="0"
       spacingx="1"
       spacingy="1"
       empcolor="#0099e5"
       empopacity="0.30196078"
       color="#0099e5"
       opacity="0.14901961"
       empspacing="5"
       enabled="true"
       visible="true" /></sodipodi:namedview><title
     id="title3032">Sony Classical logo</title><metadata
     id="metadata51"><rdf:rdf><cc:work
         rdf:about=""><dc:format>image/svg+xml</dc:format><dc:type
           rdf:resource="http://purl.org/dc/dcmitype/StillImage" /><dc:title>Sony Classical logo</dc:title></cc:work></rdf:rdf><rdf:RDF><cc:Work
         rdf:about=""><dc:title>Sony Classical logo</dc:title></cc:Work></rdf:RDF></metadata><defs
     id="defs49"><rect
       x="7.6512456"
       y="79.715302"
       width="84.341637"
       height="15.124555"
       id="rect2" /></defs><g
     id="g2"
     transform="translate(3.878e-4,5.918e-5)"><image
       width="100"
       height="100"
       preserveAspectRatio="none"
       style="image-rendering:optimizeQuality"
       xlink:href="../Im%C3%A1genes_Backup_Windows/render%20falopa%20svg/fondo%20blanco%20100x100.png"
       id="image1" /></g><g
     id="g3"
     transform="matrix(0.55759253,0,0,0.55757351,-120.4907,-170.79806)"><path
       d="m 392.58,484.252 h -174.404 -0.669 v -0.669 -174.411 -0.668 h 0.669 174.404 0.669 v 0.668 174.411 0.669 z M 218.844,482.914 H 391.911 V 309.841 H 218.844 Z"
       id="path7" /></g><path
     d="M 33.244111,24.372214 H 15.027543 V 10.352523 h 18.216568 v 2.775899 h 3.000734 v 8.467893 h -3.000734 z m -0.06062,-2.831977 V 13.184501 H 18.088896 v 8.355736 z M 51.400064,13.156461 V 24.372214 H 48.369021 V 13.156461 h -9.093129 v -2.803938 h 21.217302 v 2.803938 z m 33.34148,2.775899 v 8.439854 H 66.524975 v -2.775899 h -3.000733 v -8.467893 h 3.000733 v -2.775899 h 18.216569 v 2.831978 H 66.585596 v 8.355736 H 81.68019 V 18.792376 H 69.556018 V 15.93236 Z"
     id="text1"
     style="font-size:14.5764px;font-family:Birdy;-inkscape-font-specification:'Birdy, Normal';stroke:#000000;stroke-width:0;stroke-linecap:square;stroke-miterlimit:3"
     aria-label="dtg" /><path
     id="path1"
     style="display:inline;fill:#ff0000;fill-opacity:1;fill-rule:evenodd;stroke:#000000;stroke-width:0.297851;stroke-dasharray:none;stroke-opacity:1"
     d="m 10.050781,30.224609 -0.002,6.972657 13.152344,17.199218 26.53125,0.07031 -7.994141,-12.78125 -10.710937,0.0625 -7.957032,-7.28125 z m 40.214844,24.521485 7.957031,12.796875 10.710938,-0.03711 7.9375,7.298829 13.007812,4.271484 0.01953,-6.970703 L 76.796875,54.875 Z" /><text
     xml:space="preserve"
     id="text2"
     style="line-height:0;text-align:start;letter-spacing:1.03584px;writing-mode:lr-tb;direction:ltr;white-space:pre;shape-inside:url(#rect2);fill:#000000"
     transform="matrix(1,0,0,0.98876341,4.8044058,9.7327638)"><tspan
       x="7.6503906"
       y="83.133346"
       id="tspan3"><tspan
         style="font-family:'Arial Unicode MS';-inkscape-font-specification:'Arial Unicode MS'"
         id="tspan1">SHRINE OS</tspan></tspan></text></svg>
