<svg width="22" xmlns="http://www.w3.org/2000/svg" height="22"><defs><linearGradient id="c"><stop stop-color="#c6ccf0"/><stop offset="1" stop-color="#c8cdf0"/></linearGradient><linearGradient id="b"><stop stop-color="#495bcf"/><stop offset="1" stop-color="#7f8cdd" stop-opacity="0"/></linearGradient><linearGradient id="a"><stop stop-color="#ffffff"/><stop offset="1" stop-color="#ffffff"/></linearGradient></defs><path d="M8 3v4h1V3H8zm2 1v3h1V4h-1zM6 5v2h1V5H6zm6 0v2h1V5h-1zM4 6v1h1V6H4zm10 0v1h1V6h-1zM3 8v6a4 3.99 0 0 0 0 .01A4 3.99 0 0 0 7 18H4v1h11v-1h-3a4 3.99 0 0 0 4-3.99 4 3.99 0 0 0 0-.01h2c.554 0 1-.446 1-1v-3c0-.554-.446-1-1-1h-2V8H3zm1 1h11v5a3 3 0 0 1-3 3H7a3 3 0 0 1-3-3V9zm12 1h2v3h-2v-3z" fill="#c6ccf0"/></svg>