<svg width="32" height="32" version="1.1" xmlns="http://www.w3.org/2000/svg">
 <style id="current-color-scheme" type="text/css">.ColorScheme-Text {
        color:#ffffff;
      }
      .ColorScheme-Background{
        color:#ffffff;
      }
      .ColorScheme-Highlight{
        color:#dbdef5;
      }
      .ColorScheme-ViewText {
        color:#abb3e9;
      }
      .ColorScheme-ViewBackground{
        color:#ffffff;
      }
      .ColorScheme-ViewHover {
        color:#dbdef5;
      }
      .ColorScheme-ViewFocus{
        color:#b5bceb;
      }
      .ColorScheme-ButtonText {
        color:#abb3e9;
      }
      .ColorScheme-ButtonBackground{
        color:#ffffff;
      }
      .ColorScheme-ButtonHover {
        color:#dbdef5;
      }
      .ColorScheme-ButtonFocus{
        color:#b5bceb;
      }</style>
 <path class="ColorScheme-Text" d="m5.5 6c-1.385 0-2.5 1.115-2.5 2.5v12c0 1.385 1.115 2.5 2.5 2.5h21c1.385 0 2.5-1.115 2.5-2.5v-12c0-1.385-1.115-2.5-2.5-2.5zm0 1.5h21c0.554 0 1 0.446 1 1v12c0 0.554-0.446 1-1 1h-21c-0.554 0-1-0.446-1-1v-12c0-0.554 0.446-1 1-1zm4.75 17c-0.4155 0-0.75 0.3345-0.75 0.75s0.3345 0.75 0.75 0.75h11.5c0.4155 0 0.75-0.3345 0.75-0.75s-0.3345-0.75-0.75-0.75z" fill="currentColor"/>
 <path class="ColorScheme-Text" d="m23 9 3 3v-3zm-17 8v3h3z" fill="currentColor"/>
</svg>
