<svg xmlns="http://www.w3.org/2000/svg" id="svg1" width="16" height="16" version="1.1"><g id="snap-page" transform="translate(-979 -527.362)"><g id="snap-page-7"><g id="g8353" transform="rotate(-90 987 535.362)"><path id="rect8149" d="M995 531.362c0-1.108-.892-2-2-2h-6v1h6c.554 0 1 .446 1 1v6h1v-6zm-4 9h-10c-.554 0-1-.446-1-1v-4h-1v4c0 1.108.892 2 2 2h10v-1z" style="fill:#ffffff;stroke-linecap:round;stroke-linejoin:round;stop-color:#202c7a"/><path id="rect8154" d="M991 536.362c-.554 0-1 .446-1 1v4h1v-4h4v-1z" style="fill:#ffffff;stroke-linecap:round;stroke-linejoin:round;stop-color:#202c7a"/><path id="path8171" d="m994.293 536.655-4 4 .707.707 4-4z" style="color:#202c7a;fill:#ffffff;fill-opacity:1;-inkscape-stroke:none"/></g><path id="rect8360" d="M983 536.362v3h-3v1h3v3h1v-3h3v-1h-3v-3z" style="fill:#ffffff;stroke-linecap:round;stroke-linejoin:round;stop-color:#202c7a"/></g></g><style id="s2">@import &quot;../../highlights.css&quot;;.success{fill:#97a1e3}.warning{fill:#6978d7}.error{fill:#c5caef}</style></svg>