<svg xmlns="http://www.w3.org/2000/svg" id="svg1" width="16" height="16" version="1.1"><g id="snap-page" transform="translate(-979 -527.362)"><g id="snap-page-7"><path id="rect8149" d="M983 527.362c-1.108 0-2 .892-2 2v3h1v-3c0-.554.446-1 1-1h6v-1zm9 4v10c0 .554-.446 1-1 1h-8c-.554 0-1-.446-1-1v-1h-1v1c0 1.108.892 2 2 2h8c1.108 0 2-.892 2-2v-10z" style="fill:#ffffff;stroke-linecap:round;stroke-linejoin:round;stop-color:#202c7a"/><path id="rect8154" d="M988 531.362c0 .554.446 1 1 1h4v-1h-4v-4h-1z" style="fill:#ffffff;stroke-linecap:round;stroke-linejoin:round;stop-color:#202c7a"/><path id="path8171" d="m988.293 528.07 4 4 .707-.708-4-4z" style="color:#202c7a;fill:#ffffff;fill-opacity:1;-inkscape-stroke:none"/><path id="rect8529" d="M312.992 1071.523h5v1h-5z" style="fill:#ffffff;stroke-width:.912871;stroke-linecap:round;stroke-linejoin:round;stop-color:#202c7a" transform="rotate(-45)"/><path id="rect8531" d="M1071.523 312.992h5v1h-5z" style="fill:#ffffff;stroke-width:.912871;stroke-linecap:round;stroke-linejoin:round;stop-color:#202c7a" transform="scale(1 -1) rotate(-45)"/><path id="rect8533" d="M980 535.862h7v1h-7z" style="fill:#ffffff;stroke-linecap:round;stroke-linejoin:round;stop-color:#202c7a"/></g></g><style id="s0">.success{fill:#97a1e3}.warning{fill:#6978d7}.error{fill:#c5caef}</style></svg>