<svg xmlns="http://www.w3.org/2000/svg" viewBox="0 0 16 16">
 <g color="#202c7a" transform="translate(-421.71-531.79)">
  <path fill="#c8cdf0" d="m425.71 535.79h2v2h-2z"/>
  <path fill="#e9ebf9" d="m423.71 539.79h2v2h-2z"/>
  <path fill="#ffffff" d="m431.71 535.79h2v2h-2z"/>
  <path fill="#bbc2ed" d="m423.71 535.79h2v2h-2z"/>
  <path fill="#8793df" d="m429.71 535.79h2v2h-2z"/>
  <path fill="#e9ebf9" d="m427.71 535.79h2v2h-2z"/>
  <path fill="#ffffff" d="m427.71 537.79h2v2h-2z"/>
  <path fill="#bbc2ed" d="m425.71 537.79h2v2h-2z"/>
  <path fill="#8793df" d="m423.71 537.79h2v2h-2z"/>
  <path fill="#e9ebf9" d="m431.71 537.79h2v2h-2z"/>
  <path fill="#c8cdf0" d="m429.71 537.79h2v2h-2z"/>
  <path fill="#ffffff" d="m431.71 539.79h2v2h-2z"/>
  <path fill="#bbc2ed" d="m429.71 539.79h2v2h-2z"/>
  <path fill="#8793df" d="m427.71 539.79h2v2h-2z"/>
  <path fill="#c8cdf0" d="m425.71 539.79h2v2h-2z"/>
  <path fill="#ffffff" d="m429.71 541.79h2v2h-2z"/>
  <path fill="#bbc2ed" d="m427.71 541.79h2v2h-2z"/>
  <path fill="#8793df" d="m425.71 541.79h2v2h-2z"/>
  <path fill="#e9ebf9" d="m431.71 541.79h2v2h-2z"/>
  <path fill="#ffffff" d="m425.71 543.79h2v2h-2z"/>
  <path fill="#bbc2ed" d="m423.71 543.79h2v2h-2z"/>
  <path fill="#8793df" d="m433.71 537.79h2v2h-2z"/>
  <path fill="#bbc2ed" d="m433.71 539.79h2v2h-2z"/>
  <path fill="#c8cdf0" d="m423.71 541.79h2v2h-2z"/>
  <path fill="#e9ebf9" d="m433.71 535.79h2v2h-2z"/>
  <path fill="#ffffff" d="m423.71 533.79h2v2h-2z"/>
  <path fill="#bbc2ed" d="m427.71 533.79h2v2h-2z"/>
  <path fill="#8793df" d="m425.71 533.79h2v2h-2z"/>
  <path fill="#e9ebf9" d="m431.71 533.79h2v2h-2z"/>
  <path fill="#c8cdf0" d="m433.71 533.79h2v2h-2z"/>
  <path fill="#ffffff" d="m429.71 533.79h2v2h-2z"/>
  <path fill="#8793df" d="m433.71 541.79h2v2h-2z"/>
  <path fill="#ffffff" d="m431.71 543.79h2v2h-2z"/>
  <path fill="#8793df" d="m429.71 543.79h2v2h-2z"/>
  <g fill="#e9ebf9">
   <path d="m427.71 543.79h2v2h-2z"/>
   <path d="m433.71 543.79h2v2h-2z"/>
  </g>
 </g>
</svg>
